<?xml version="1.0" encoding="utf-8"?>
<!-- Generator: Adobe Illustrator 25.0.1, SVG Export Plug-In . SVG Version: 6.00 Build 0)  -->
<svg version="1.1" id="Layer_1" xmlns="http://www.w3.org/2000/svg" xmlns:xlink="http://www.w3.org/1999/xlink" x="0px" y="0px"
	 viewBox="0 0 1000 600" style="enable-background:new 0 0 1000 600;" xml:space="preserve">
<g>
	<path d="M167.54,139.01c-3.22-13.87-11.07-23.57-23.57-29.08c-6.98-3.03-14.75-4.55-23.29-4.55c-16.36,0-29.79,6.17-40.31,18.5
		c-10.52,12.33-15.78,30.88-15.78,55.64c0,24.95,5.7,42.6,17.09,52.96c11.39,10.36,24.35,15.54,38.87,15.54
		c14.24,0,25.91-4.09,35.01-12.26c9.1-8.17,14.7-18.88,16.81-32.12h-47v-33.9h84.62v109.02h-28.12l-4.27-25.36
		c-8.18,9.6-15.53,16.37-22.05,20.31c-11.21,6.86-24.99,10.29-41.35,10.29c-26.92,0-48.97-9.32-66.15-27.96
		c-17.92-18.73-26.88-44.35-26.88-76.85c0-32.87,9.05-59.22,27.15-79.06c18.1-19.83,42.04-29.75,71.8-29.75
		c25.82,0,46.56,6.55,62.23,19.64c15.66,13.09,24.65,29.42,26.94,49H167.54z"/>
	<path d="M965.25,111.58H293.24v43.14h663.2V190h-663.2v52.23h676.98v36.52H251.75V75.61h713.5V111.58z"/>
	<path d="M31.65,321.18h41.76v83.7l78.49-83.7h54.85l-83.36,83.55l87.64,119.6h-54.58l-62.59-88.68l-20.44,20.73v67.95H31.65V321.18
		z"/>
	<path d="M391.23,506.27c-15.35,15.8-37.53,23.71-66.57,23.71c-29.04,0-51.23-7.9-66.57-23.71c-20.58-19.39-30.87-47.32-30.87-83.8
		c0-37.21,10.29-65.14,30.87-83.8c15.34-15.8,37.53-23.71,66.57-23.71c29.03,0,51.22,7.9,66.57,23.71
		c20.49,18.65,30.73,46.58,30.73,83.8C421.96,458.95,411.71,486.89,391.23,506.27z M364.7,475.4c9.88-12.4,14.82-30.05,14.82-52.92
		c0-22.79-4.94-40.4-14.82-52.85c-9.88-12.45-23.22-18.67-40.04-18.67c-16.81,0-30.23,6.2-40.24,18.61
		c-10.02,12.4-15.02,30.05-15.02,52.92s5.01,40.52,15.02,52.92c10.01,12.4,23.43,18.61,40.24,18.61
		C341.47,494.01,354.82,487.8,364.7,475.4z"/>
	<path d="M454.35,321.18h42.45V487.8h101.44v36.52H454.35V321.18z"/>
	<path d="M776.99,357.15h-107.5v43.14h98.68v35.28h-98.68v52.23h112.46v36.52H628V321.18h148.98V357.15z"/>
	<path d="M933.9,321.18H978l-69.26,203.15h-40.1l-68.7-203.15h45.34l44.1,154.22L933.9,321.18z"/>
</g>
</svg>
