<?xml version="1.0" encoding="utf-8"?>
<!-- Generator: Adobe Illustrator 24.1.1, SVG Export Plug-In . SVG Version: 6.00 Build 0)  -->
<svg version="1.1" id="Layer_1" xmlns="http://www.w3.org/2000/svg" xmlns:xlink="http://www.w3.org/1999/xlink" x="0px" y="0px"
	 viewBox="0 0 50 50" style="enable-background:new 0 0 50 50;" xml:space="preserve">
<style type="text/css">
	.st0{clip-path:url(#SVGID_2_);fill:#111111;}
</style>
<g>
	<defs>
		<rect id="SVGID_1_" x="2.1" y="0.4" width="45.8" height="49.1"/>
	</defs>
	<clipPath id="SVGID_2_">
		<use xlink:href="#SVGID_1_"  style="overflow:visible;"/>
	</clipPath>
	<path class="st0" d="M47.9,49.5c-0.1,0-0.3,0-0.4,0c-0.4,0-0.7,0-1.1,0c-0.1,0-0.2,0-0.4,0c-0.1,0-0.1,0-0.2-0.1
		c0-0.1-0.1-0.1-0.1-0.2c-0.3-0.5-0.6-1-0.9-1.5c-0.4-0.7-0.9-1.4-1.3-2.1c-0.6-0.9-1.2-1.7-1.9-2.5c-0.7-0.9-1.5-1.8-2.4-2.5
		c-0.7-0.6-1.4-1.1-2.2-1.6c-0.5-0.3-1-0.5-1.5-0.7c-0.4-0.2-0.8-0.2-1.3-0.3c-0.3,0-0.6-0.1-0.9-0.1c-0.2,0-0.5,0-0.7,0
		c-0.6,0-1.2,0.2-1.8,0.4c-0.6,0.2-1.2,0.6-1.8,0.9c-0.7,0.4-1.3,1-1.8,1.6c-0.9,0.9-1.6,1.9-2.3,2.9c-0.5,0.7-0.9,1.5-1.3,2.3
		c-0.5,1-0.9,1.9-1.3,2.9c-0.1,0.2-0.1,0.3-0.2,0.5c0,0-0.1,0-0.1,0c-0.3,0-0.6-0.1-1-0.1c-0.6-0.1-1.1-0.2-1.6-0.4
		c-0.2-0.1-0.5-0.2-0.7-0.2c-0.6-0.2-1.1-0.4-1.7-0.6c-0.5-0.2-1-0.5-1.5-0.7c-0.7-0.4-1.3-0.7-2-1.2c-0.6-0.4-1.3-0.9-1.9-1.3
		c-0.5-0.4-0.9-0.7-1.4-1.2c-0.2-0.2-0.4-0.4-0.6-0.6c-0.4-0.4-0.7-0.7-1.1-1.1c-0.4-0.4-0.8-0.9-1.2-1.3c-0.3-0.4-0.7-0.8-1-1.3
		c-0.2-0.3-0.4-0.6-0.6-0.9c-0.2-0.4-0.5-0.7-0.7-1.1c-0.4-0.6-0.7-1.2-1-1.9C4.3,35.1,4,34.5,3.8,34c-0.4-0.9-0.7-1.9-0.9-2.8
		c-0.2-0.6-0.3-1.2-0.4-1.9c-0.1-0.7-0.2-1.5-0.3-2.2c-0.1-1-0.1-2.1-0.1-3.1c0-0.6,0.1-1.3,0.2-1.9c0.1-0.7,0.2-1.3,0.3-2
		c0.1-0.4,0.2-0.9,0.3-1.3c0.1-0.5,0.3-0.9,0.4-1.4c0.2-0.4,0.3-0.9,0.5-1.3c0.1-0.3,0.3-0.7,0.4-1c0.4-0.7,0.8-1.5,1.2-2.2
		c0.8-1.2,1.6-2.3,2.5-3.4c1.1-1.3,2.3-2.4,3.7-3.4c1.1-0.8,2.2-1.6,3.3-2.2c1-0.5,2-1,3-1.4c1.2-0.5,2.4-0.9,3.6-1.2
		c0.8-0.2,1.6-0.4,2.4-0.5c0.6-0.1,1.3-0.2,1.9-0.2c1.2-0.1,2.4-0.1,3.5-0.1c0.7,0,1.4,0.1,2.1,0.2c2.4,0.3,4.8,0.8,7.1,1.6
		c1.2,0.4,2.3,0.9,3.4,1.4c0,0,0.1,0.1,0.1,0.1c0,0.1,0,0.1,0,0.2c-0.2,0.5-0.4,1-0.6,1.5c-0.3,0.6-0.6,1.3-0.8,1.9
		c-0.4,1-0.9,2-1.3,3c-0.3,0.8-0.7,1.6-1,2.4c-0.3,0.7-0.6,1.5-1,2.2c-0.2,0.5-0.5,1.1-0.7,1.6c-0.2,0.4-0.3,0.8-0.5,1.1
		c-0.3,0.6-0.6,1.3-0.8,1.9c-0.2,0.5-0.4,0.9-0.6,1.4c-0.2,0.5-0.4,1-0.7,1.6c-0.2,0.5-0.5,1.1-0.7,1.6c-0.2,0.5-0.4,1.1-0.7,1.6
		c0,0.1,0,0.2,0,0.3c0.3,0.5,0.6,0.9,0.9,1.4c0.6,1,1.2,2,1.9,3c0.3,0.5,0.7,1.1,1,1.6c0.4,0.7,0.8,1.3,1.2,2
		c0.9,1.4,1.8,2.8,2.7,4.3c0.4,0.7,0.8,1.3,1.3,2c0.3,0.4,0.5,0.9,0.8,1.3c0.4,0.6,0.8,1.3,1.2,1.9c0.5,0.7,0.9,1.4,1.4,2.1
		c0.4,0.6,0.8,1.3,1.2,1.9c0.3,0.5,0.6,0.9,0.9,1.4c0.1,0.1,0.2,0.3,0.3,0.4C47.9,49.4,47.9,49.5,47.9,49.5 M8.9,10.6
		c0.1,0,0.1,0,0.2,0c1.7,0,3.3,0,5,0c2.4,0,4.9,0,7.3,0c0.3,0,0.5,0,0.8,0c0.1,0,0.1,0,0.2,0.1c0,0.1,0,0.2,0,0.3c0,0.1,0,0.3,0,0.4
		c0,1.2,0,2.5,0,3.7c0,0.9,0,1.8,0,2.8c0,0.8,0,1.6,0,2.4c0,0.9,0,1.7,0,2.6c0,1.5,0,3,0,4.5c0,1.1,0,2.2,0,3.2c0,0.9,0,1.9,0,2.8
		c0,1.3,0,2.5,0,3.8c0,0.7,0,1.3,0,2c0,0.9,0,1.9,0,2.8c0,0.7,0,1.4,0,2.1c0,0.3,0,0.5,0,0.8c0,0.2,0,0.4,0,0.6c0,0,0,0.1,0,0.1
		c0,0,0,0,0-0.1c0.2-0.4,0.3-0.7,0.5-1.1c0.3-0.7,0.6-1.3,0.9-2c0.4-0.8,0.7-1.6,1.1-2.3c0.3-0.6,0.6-1.3,0.9-1.9
		c0.3-0.7,0.6-1.4,0.9-2.1c0.4-0.8,0.8-1.7,1.2-2.5c0.4-0.9,0.9-1.9,1.3-2.8c0.2-0.5,0.5-1.1,0.7-1.6c0.3-0.7,0.7-1.4,1-2.2
		c0.3-0.7,0.6-1.3,0.8-2c0.4-0.9,0.7-1.8,1-2.7c0.4-1.2,0.8-2.3,1-3.6c0.1-0.7,0.2-1.4,0.3-2.1c0.1-1.1,0-2.1-0.1-3.2
		c-0.1-0.8-0.2-1.5-0.5-2.2C33.2,10,32.8,9,32.1,8c-0.5-0.8-1.2-1.6-1.9-2.2c-0.4-0.3-0.8-0.6-1.2-0.9c-0.4-0.3-0.9-0.6-1.4-0.8
		c-0.8-0.4-1.7-0.6-2.5-0.7c-0.4,0-0.8-0.1-1.3-0.1c-0.2,0-0.5,0-0.7,0c-0.9,0-1.8,0.1-2.7,0.3c-0.3,0.1-0.7,0.1-1,0.2
		C19,3.9,18.6,4,18.2,4.2c-0.4,0.1-0.8,0.3-1.2,0.5c-0.4,0.2-0.9,0.4-1.3,0.6C15,5.6,14.3,6,13.7,6.4C12.9,7,12,7.6,11.2,8.3
		c-0.5,0.4-0.9,0.8-1.3,1.2c-0.3,0.3-0.6,0.6-0.9,1C9,10.5,8.9,10.5,8.9,10.6 M3.4,24.5c0,0.9,0.1,1.9,0.3,2.9
		C4,28.5,4.4,29.6,5,30.6c0.3,0.5,0.6,1,1,1.4c0.6,0.7,1.4,1.2,2.2,1.7c0.4,0.2,0.8,0.4,1.3,0.6c0.2,0.1,0.5,0.2,0.7,0.2
		c0.3,0.1,0.6,0.2,0.9,0.2c0.2,0,0.4,0.1,0.6,0.1c0.3,0,0.7,0.1,1,0.1c0.6,0,1.2,0,1.8-0.1c1.1-0.2,2.1-0.5,3.1-1.1
		c0.5-0.3,1-0.7,1.4-1.1c0.3-0.4,0.6-0.8,0.9-1.2c0.5-0.8,0.8-1.6,1-2.5c0.2-0.7,0.3-1.4,0.4-2.1c0-0.3,0.1-0.5,0.1-0.8
		c0-0.2,0-0.4,0-0.6c0-0.2,0-0.4,0-0.6c0-0.3,0-0.6,0-0.9c0-0.5-0.1-1-0.2-1.4c-0.1-0.5-0.2-1-0.3-1.5c-0.1-0.4-0.3-0.8-0.4-1.2
		c-0.3-0.8-0.7-1.5-1.1-2.2c-0.3-0.5-0.6-0.9-0.9-1.4c-0.2-0.3-0.5-0.6-0.8-0.8c-0.4-0.4-0.8-0.7-1.2-1c-0.7-0.5-1.5-1-2.3-1.3
		c-0.7-0.3-1.4-0.6-2.1-0.7c-0.7-0.2-1.4-0.3-2.2-0.4c-0.3,0-0.6,0-0.9,0c-0.2,0-0.4,0-0.6,0c-0.1,0-0.2,0-0.3,0.2
		c-0.2,0.3-0.4,0.5-0.6,0.8c-0.4,0.7-0.8,1.3-1.2,2c-0.5,1-1,2-1.3,3.1c-0.3,0.7-0.5,1.5-0.7,2.2c-0.1,0.7-0.3,1.3-0.4,2
		C3.5,22.8,3.4,23.6,3.4,24.5"/>
</g>
</svg>
